<svg version="1" xmlns="http://www.w3.org/2000/svg" width="1936" height="132" viewBox="0 0 1452.000000 99.000000"><path d="M507.7.6c-.1.1-7.8.5-17.2.9-9.3.4-18.6.8-20.5 1-1.9.2-8.9.6-15.5 1s-13.8.9-16 1c-11.7 1-18.7 1.5-24.5 2-6.1.4-10.6.8-24 2-22.7 2-34.3 3.2-40 4-1.9.2-6 .7-9 1-3 .4-6.8.8-8.5 1-1.6.2-5.5.7-8.5 1.1-6.4.7-8.9 1.1-15 1.9-9.8 1.2-11.6 1.5-14 1.9-3.3.5-9.6 1.5-13.8 2-1.8.3-4.5.7-6 1-1.5.4-4.7.8-7.2 1.1-2.5.3-5.8.8-7.5 1-1.6.3-4.6.8-6.5 1-4.9.8-8 1.3-11.5 1.9-1.6.3-4.8.8-7 1.1-2.2.4-5.1.8-6.5 1.1-2.4.4-4.6.8-10.7 1.9-6.5 1-9.9 1.6-11.8 2-1.1.3-3.6.7-5.5 1-4.2.7-6.4 1.2-16 3.1-1.4.3-3.6.7-5 .9-1.4.2-3.6.7-5 1-1.4.3-3.8.7-5.5 1-3.7.7-5.3 1.1-13.7 2.9-3.6.9-8.1 1.7-10 2-1.8.2-4.4.7-5.8 1.1-3.3.9-5 1.2-14 2.9-1.4.3-3.2.7-4 .9-5.7 1.5-7.5 1.9-14.5 3.2-1.1.2-3.1.7-4.5 1-1.4.3-3.4.8-4.5 1-1.1.3-3.1.7-4.5 1-1.4.4-3.4.8-4.5 1-3.9.9-6.5 1.5-8.5 2-1.1.3-2.9.7-4.1 1-1.1.2-2.8.6-3.7.9-.9.3-2.8.7-4.2 1-2.3.5-4.1.9-9 2.1-4.1 1-6.6 1.6-8.5 2-4.8 1.1-6.7 1.6-18 4.5-18.8 4.9-19.2 5-23 5.7-1.6.3-3.8.9-4.7 1.4-1 .5-1.8.7-1.8.4 0-.3-.9-.1-2 .5-1.8 1-2 2.1-2 10.7v9.6l81.2-.6c44.6-.4 370.7-.7 724.6-.7 354 0 643.3-.2 643.1-.4-.2-.2-6.5-.7-13.9-1.1-7.4-.3-15.1-.8-17-1-1.9-.2-7.5-.6-12.5-.9-11.2-.8-20.4-1.5-27.5-2.2-3-.3-7.7-.7-10.5-1-14-1.2-23.5-2.1-31-2.9-2.7-.2-7.5-.7-10.5-1-3-.3-7.3-.7-9.5-1-2.2-.2-6.5-.7-9.5-1-3-.3-7.1-.8-9-1-1.9-.3-5.7-.7-8.5-1-2.7-.3-6.6-.8-8.5-1-3.4-.5-5.4-.8-16.5-2.1-2.7-.3-6.1-.8-7.5-1-1.4-.2-4.5-.6-7-.9-2.5-.3-5.6-.7-7-.9-1.4-.2-4.7-.7-7.5-1.1-2.7-.4-5.9-.8-7-1-1.1-.2-4.2-.6-7-.9-2.7-.4-6.1-.9-7.5-1.1-1.4-.3-4.3-.7-6.5-1-2.2-.3-5.1-.7-6.4-1-1.3-.2-4.9-.7-8-1-3.1-.4-6.3-.8-7.1-1-1.6-.5-5.2-1.1-11.5-2-2.3-.3-5.2-.8-6.5-1-1.4-.3-4.3-.7-6.5-1-2.2-.3-5.1-.7-6.5-1-1.4-.3-3.6-.7-5-.9-1.4-.3-4.5-.8-7-1.1-2.5-.3-5.4-.7-6.5-.9-1.8-.3-5.9-1-13.7-2.2-1.6-.2-4-.6-5.5-.9-6.1-1-9-1.4-12.8-2-2.3-.3-5.2-.8-6.5-1-1.4-.3-4.5-.8-7-1.1-2.5-.3-5.2-.7-6.1-1-.9-.3-3.4-.7-5.5-1-2.2-.4-4.6-.7-5.4-.8-.8-.2-2.8-.5-4.5-.9-1.6-.3-5-.9-7.5-1.2-2.5-.3-5.6-.7-7-1-1.4-.2-4.3-.7-6.5-1-2.2-.4-4.9-.8-6-1-6.4-1.2-14.1-2.4-20.5-3.1-3-.3-5.8-.8-6.2-1.1-.5-.2-2.7-.7-5-.9-2.4-.3-5.2-.7-6.3-.9-2.7-.5-8.7-1.4-13.2-2-2.1-.3-5-.8-6.5-1.1-1.6-.2-4.1-.6-5.8-.9-1.6-.3-4.2-.7-5.7-1-1.6-.2-4.5-.7-6.5-1-2.1-.3-5.5-.8-7.5-1.1l-6.3-.9c-1.4-.2-4.3-.6-6.5-.9-2.2-.4-5.8-.9-8-1.2-2.2-.3-4.9-.7-6-.9-1.1-.2-4-.6-6.5-1s-5.6-.8-7-1.1c-1.4-.2-4.3-.6-6.5-1-2.2-.3-5.1-.7-6.5-.9-3.9-.6-11.2-1.6-15-2.1-1.9-.2-4.8-.6-6.5-.8-1.6-.3-5-.7-7.5-1.1-5.6-.7-11.6-1.5-15.5-2-1.6-.3-4.8-.7-7-.9-2.2-.3-5.6-.7-7.5-1-1.9-.3-6-.8-9-1.1-3-.3-6.8-.8-8.5-1-1.6-.3-5.5-.7-8.5-1.1-3-.3-6.8-.7-8.5-.9-3.5-.4-11.8-1.3-19.5-2-3-.3-7.7-.8-10.5-1-2.7-.3-7.5-.7-10.5-1-3-.3-7.3-.8-9.5-1-2.2-.2-7.6-.7-12-1-4.4-.4-10-.8-12.5-1-12.7-1.1-28-2.2-41.5-3-5.5-.3-12.9-.8-16.5-1.1-3.6-.3-15.3-.5-26-.6-10.7 0-18.5-.3-17.2-.7 1.3-.3-27.2-.6-63.3-.6-36.1 0-65.7.1-65.8.1z" fill="#fff"/></svg>