<svg xmlns="http://www.w3.org/2000/svg" width="99" height="85" viewBox="0 0 99 85"><defs><filter id="a" width="200%" height="200%" x="-50%" y="-50%"><feMorphology in="SourceGraphic" operator="dilate" result="SvgjsFeMorphology1052Out"/><feOffset dy="2" in="SvgjsFeMorphology1052Out" result="SvgjsFeOffset1053Out"/><feGaussianBlur in="SvgjsFeOffset1053Out" result="SvgjsFeGaussianBlur1054Out"/><feComposite in="SvgjsFeGaussianBlur1054Out" in2="SourceAlpha" operator="out" result="SvgjsFeComposite1055Out"/></filter><linearGradient id="b" x1="464.65" x2="400.75" y1="1369.26" y2="1433.16" gradientUnits="userSpaceOnUse"><stop offset="0" stop-opacity=".1"/><stop offset="1" stop-opacity="0"/></linearGradient><filter id="c" width="200%" height="200%" x="-50%" y="-50%"><feGaussianBlur in="SourceGraphic" result="SvgjsFeGaussianBlur1066Out"/></filter><mask id="d"><path fill="#fff" d="M383.41 1426.79a6.39 6.39 0 0 0 6.39 6.37h85.8a6.39 6.39 0 0 0 6.4-6.39v-57.51h-98.6z"/></mask></defs><path fill="#c2c0b4" d="M92.61 0H6.8A6.39 6.39 0 0 0 .41 6.39v11.87H99V6.37A6.39 6.39 0 0 0 92.6 0z"/><path fill-opacity=".16" d="M99 9.13H.4v9.13H99V9.13"/><path fill-opacity=".25" d="M383.41 1426.79a6.39 6.39 0 0 0 6.39 6.37h85.8a6.39 6.39 0 0 0 6.4-6.39v-57.51h-98.6z" filter="url(#a)" transform="translate(-383 -1351)"/><path fill="#eeecdf" d="M.41 75.79a6.39 6.39 0 0 0 6.39 6.37h85.8a6.39 6.39 0 0 0 6.4-6.39V18.26H.4z"/><path fill="#eeecdf" d="M.41 75.79a6.39 6.39 0 0 0 6.39 6.37h85.8a6.39 6.39 0 0 0 6.4-6.39V18.26H.4z"/><path fill="#eeecdf" d="M.41 75.79a6.39 6.39 0 0 0 6.39 6.37h85.8a6.39 6.39 0 0 0 6.4-6.39V18.26H.4z"/><path fill="url(#b)" d="M383.41 1426.79a6.39 6.39 0 0 0 6.39 6.37h85.8a6.39 6.39 0 0 0 6.4-6.39v-57.51h-98.6z" transform="translate(-383 -1351)"/><path fill="#fff" fill-opacity=".25" d="M383 1435v-67h99v67zm.41-7.21a6.39 6.39 0 0 0 6.39 6.37h85.8a6.39 6.39 0 0 0 6.4-6.39v-57.51h-98.6z" filter="url(#c)" mask="url(&amp;quot;#d&amp;quot;)" transform="translate(-383 -1351)"/><path fill-opacity=".1" d="M.41 18.26v57.53a6.39 6.39 0 0 0 6.39 6.37h13.7v-63.9z"/><path fill="#65517c" d="M12.28 9.13a2.74 2.74 0 1 1-5.49 0 2.74 2.74 0 0 1 5.49 0zm8.21 0a2.74 2.74 0 1 1-5.48 0 2.74 2.74 0 0 1 5.48 0zm8.22 0a2.74 2.74 0 1 1-5.48 0 2.74 2.74 0 0 1 5.48 0z"/><path fill-opacity=".25" d="M29 31v-5h58v5zm0 34v-5h58v5zm0 9v-5h46v5z"/><path fill="#65517c" d="M29 56V36h58v20z"/><path fill="#fff" d="M39 12V6h49v6z"/></svg>